<?xml version="1.0" standalone="no"?>
<!DOCTYPE svg PUBLIC "-//W3C//DTD SVG 20010904//EN"
 "http://www.w3.org/TR/2001/REC-SVG-20010904/DTD/svg10.dtd">
<svg version="1.0" xmlns="http://www.w3.org/2000/svg"
 width="752.000000pt" height="752.000000pt" viewBox="0 0 752.000000 752.000000"
 preserveAspectRatio="xMidYMid meet">

<g transform="translate(0.000000,752.000000) scale(0.100000,-0.100000)"
fill="#000000" stroke="none">
<path d="M1805 4876 l-240 -234 160 -163 c88 -90 598 -613 1134 -1162 536
-549 977 -996 981 -995 4 2 516 524 1138 1161 l1130 1158 -224 221 c-123 122
-233 227 -244 235 -18 12 -84 -53 -905 -894 -487 -500 -890 -909 -895 -911 -4
-2 -407 406 -894 905 -488 499 -890 909 -894 910 -4 1 -115 -103 -247 -231z"/>
</g>
</svg>
